<?xml version="1.0" encoding="UTF-8" standalone="no"?>
<!-- Created with Inkscape (http://www.inkscape.org/) -->

<svg
   width="32"
   height="32"
   viewBox="0 0 8.4666665 8.4666666"
   version="1.1"
   id="svg5"
   xml:space="preserve"
   inkscape:version="1.2.2 (b0a8486541, 2022-12-01)"
   sodipodi:docname="icon.svg"
   inkscape:export-filename="logo-white-midnight-navy-16x16.png"
   inkscape:export-xdpi="6"
   inkscape:export-ydpi="6"
   xmlns:inkscape="http://www.inkscape.org/namespaces/inkscape"
   xmlns:sodipodi="http://sodipodi.sourceforge.net/DTD/sodipodi-0.dtd"
   xmlns="http://www.w3.org/2000/svg"
   xmlns:svg="http://www.w3.org/2000/svg"><sodipodi:namedview
     id="namedview7"
     pagecolor="#ffffff"
     bordercolor="#000000"
     borderopacity="0.25"
     inkscape:showpageshadow="2"
     inkscape:pageopacity="0.0"
     inkscape:pagecheckerboard="0"
     inkscape:deskcolor="#d1d1d1"
     inkscape:document-units="px"
     showgrid="false"
     inkscape:zoom="16.287423"
     inkscape:cx="22.962503"
     inkscape:cy="20.383826"
     inkscape:window-width="1920"
     inkscape:window-height="1011"
     inkscape:window-x="0"
     inkscape:window-y="0"
     inkscape:window-maximized="1"
     inkscape:current-layer="layer1" /><defs
     id="defs2" /><g
     inkscape:label="Layer 1"
     inkscape:groupmode="layer"
     id="layer1"><rect
       style="fill:#1e3a5d;fill-opacity:1;stroke:none;stroke-width:0.0857449;stroke-miterlimit:10"
       id="rect1171"
       width="8.4666662"
       height="8.4666662"
       x="3.469447e-18"
       y="0"
       ry="1.7694316" /><g
       id="g1728"
       transform="matrix(0.17161993,0,0,0.17161993,-12.615932,-14.14677)"><path
         style="fill:#ffffff;fill-opacity:1;stroke:none;stroke-width:0.529167;stroke-miterlimit:10"
         d="M 80.551842,116.24995 V 91.391331 h 5.510487 l 4.33478,7.340547 -2.404462,4.728212 -2.693564,-4.364484 V 116.2167 Z"
         id="path403" /><path
         style="fill:#ffffff;fill-opacity:1;stroke:none;stroke-width:0.529167;stroke-miterlimit:10"
         d="M 115.80374,116.10523 V 91.246611 h -5.51049 l -4.33478,7.340547 2.40446,4.728212 2.69357,-4.364484 v 17.121094 z"
         id="path403-3" /><path
         style="fill:#ffffff;fill-opacity:1;stroke:none;stroke-width:0.529167;stroke-miterlimit:10"
         d="m 96.143396,91.638555 -7.771029,14.751655 c 3.190837,3.53089 5.88401,8.79754 8.203798,13.97014 -0.632691,0.8154 0.04385,2.52076 1.173425,2.58848 v -15.53337 c -1.208326,-0.0106 -1.911469,-1.31635 -1.948972,-2.28743 0.0265,-0.96447 0.847111,-2.05638 2.262185,-2.08752 1.393731,-0.007 2.238077,0.91324 2.281427,2.08752 0.0113,1.24438 -0.598202,2.18848 -1.761976,2.28743 v 15.53337 c 1.201756,-0.0972 1.771676,-1.8006 1.191313,-2.58848 1.235183,-3.26036 3.305483,-7.76219 8.135523,-13.97014 l -7.66316,-14.751655 z"
         id="path405"
         sodipodi:nodetypes="cccccccccccccc" /></g></g></svg>
