<?xml version="1.0" encoding="UTF-8" standalone="no"?>
<!-- Created with Inkscape (http://www.inkscape.org/) -->

<svg
   width="1024"
   height="256"
   viewBox="0 0 270.93333 67.733333"
   version="1.1"
   id="svg5"
   xml:space="preserve"
   inkscape:version="1.2.2 (b0a8486541, 2022-12-01)"
   sodipodi:docname="logo-text-midnight-navy-transparent.svg"
   inkscape:export-filename="logo-white-midnight-navy-16x16.png"
   inkscape:export-xdpi="6"
   inkscape:export-ydpi="6"
   xmlns:inkscape="http://www.inkscape.org/namespaces/inkscape"
   xmlns:sodipodi="http://sodipodi.sourceforge.net/DTD/sodipodi-0.dtd"
   xmlns="http://www.w3.org/2000/svg"
   xmlns:svg="http://www.w3.org/2000/svg"><sodipodi:namedview
     id="namedview7"
     pagecolor="#ffffff"
     bordercolor="#000000"
     borderopacity="0.25"
     inkscape:showpageshadow="2"
     inkscape:pageopacity="0.0"
     inkscape:pagecheckerboard="0"
     inkscape:deskcolor="#d1d1d1"
     inkscape:document-units="px"
     showgrid="false"
     inkscape:zoom="1.0179639"
     inkscape:cx="466.61771"
     inkscape:cy="143.42355"
     inkscape:window-width="1920"
     inkscape:window-height="1011"
     inkscape:window-x="0"
     inkscape:window-y="0"
     inkscape:window-maximized="1"
     inkscape:current-layer="layer1" /><defs
     id="defs2" /><g
     inkscape:label="Layer 1"
     inkscape:groupmode="layer"
     id="layer1"><g
       id="g1728"
       transform="matrix(1.9506123,0,0,1.9506123,-147.79386,-175.03946)"><path
         style="fill:#1e3a5d;fill-opacity:1;stroke:none;stroke-width:0.529167;stroke-miterlimit:10"
         d="M 80.551842,116.24995 V 91.391331 h 5.510487 l 4.33478,7.340547 -2.404462,4.728212 -2.693564,-4.364484 V 116.2167 Z"
         id="path403" /><path
         style="fill:#1e3a5d;fill-opacity:1;stroke:none;stroke-width:0.529167;stroke-miterlimit:10"
         d="M 115.80374,116.10523 V 91.246611 h -5.51049 l -4.33478,7.340547 2.40446,4.728212 2.69357,-4.364484 v 17.121094 z"
         id="path403-3" /><path
         style="fill:#1e3a5d;fill-opacity:1;stroke:none;stroke-width:0.529167;stroke-miterlimit:10"
         d="m 96.143396,91.638555 -7.771029,14.751655 c 3.190837,3.53089 5.88401,8.79754 8.203798,13.97014 -0.632691,0.8154 0.04385,2.52076 1.173425,2.58848 v -15.53337 c -1.208326,-0.0106 -1.911469,-1.31635 -1.948972,-2.28743 0.0265,-0.96447 0.847111,-2.05638 2.262185,-2.08752 1.393731,-0.007 2.238077,0.91324 2.281427,2.08752 0.0113,1.24438 -0.598202,2.18848 -1.761976,2.28743 v 15.53337 c 1.201756,-0.0972 1.771676,-1.8006 1.191313,-2.58848 1.235183,-3.26036 3.305483,-7.76219 8.135523,-13.97014 l -7.66316,-14.751655 z"
         id="path405"
         sodipodi:nodetypes="cccccccccccccc" /></g><g
       aria-label="Markdown
Master CMS"
       id="text4014"
       style="font-size:29.5895px;-inkscape-font-specification:sans-serif;fill:#1e3a5d;stroke-width:4.43843;stroke-miterlimit:10"><path
         d="m 96.382322,5.4352015 q 0.532611,0.9764535 1.21317,2.4263391 0.710148,1.420296 1.449885,3.1068974 0.769327,1.657012 1.509063,3.402793 0.73974,1.74578 1.39071,3.284434 0.65097,-1.538654 1.3907,-3.284434 0.73974,-1.745781 1.47948,-3.402793 0.76933,-1.6866014 1.44989,-3.1068974 0.71014,-1.4498856 1.24275,-2.4263391 h 4.20171 q 0.2959,2.0416756 0.53261,4.5863725 0.26631,2.515108 0.44385,5.266931 0.20712,2.722234 0.35507,5.474058 0.17754,2.751823 0.2959,5.178162 h -4.49761 q -0.0888,-2.988539 -0.23671,-6.50969 -0.14795,-3.52115 -0.44385,-7.10148 -0.53261,1.242759 -1.18358,2.751824 -0.65097,1.509064 -1.30193,3.018129 -0.62138,1.509064 -1.21317,2.899771 -0.59179,1.361117 -1.00605,2.33757 h -3.22525 q -0.414256,-0.976453 -1.006046,-2.33757 -0.59179,-1.390707 -1.242759,-2.899771 -0.621379,-1.509065 -1.272348,-3.018129 -0.650969,-1.509065 -1.18358,-2.751824 -0.295895,3.58033 -0.443843,7.10148 -0.147947,3.521151 -0.236716,6.50969 h -4.497604 q 0.118358,-2.426339 0.266305,-5.178162 0.177538,-2.751824 0.355075,-5.474058 0.207126,-2.751823 0.443842,-5.266931 0.266306,-2.5446969 0.562201,-4.5863725 z"
         style="font-weight:bold;font-family:Ubuntu;-inkscape-font-specification:'Ubuntu Bold'"
         id="path4095" /><path
         d="m 123.13121,22.863417 q 0.65097,0 1.24276,-0.02959 0.59179,-0.02959 0.94686,-0.08877 v -3.343613 q -0.2663,-0.05918 -0.79891,-0.118358 -0.53261,-0.05918 -0.97646,-0.05918 -0.62137,0 -1.18358,0.08877 -0.53261,0.05918 -0.94686,0.266306 -0.41425,0.207126 -0.65097,0.5622 -0.23671,0.355074 -0.23671,0.887685 0,1.035633 0.68055,1.449886 0.71015,0.384663 1.92332,0.384663 z M 122.77614,9.9623951 q 1.9529,0 3.25484,0.4438429 1.30194,0.443842 2.07127,1.272348 0.79891,0.828506 1.1244,2.012086 0.32548,1.18358 0.32548,2.633466 v 9.172745 q -0.94686,0.207126 -2.63346,0.473432 -1.6866,0.295895 -4.08335,0.295895 -1.50907,0 -2.75183,-0.266306 -1.21317,-0.266305 -2.10085,-0.858095 -0.88769,-0.62138 -1.36112,-1.597833 -0.47343,-0.976454 -0.47343,-2.39675 0,-1.361117 0.53261,-2.307981 0.5622,-0.946864 1.47948,-1.509064 0.91727,-0.562201 2.10085,-0.798917 1.18358,-0.266305 2.45593,-0.266305 0.85809,0 1.50906,0.08877 0.68056,0.05918 1.09481,0.177537 v -0.414253 q 0,-1.124401 -0.68055,-1.804959 -0.68056,-0.680559 -2.36716,-0.680559 -1.1244,0 -2.21922,0.177537 -1.09481,0.147948 -1.89372,0.443843 l -0.5622,-3.55074 q 0.38466,-0.118358 0.94686,-0.236716 0.59179,-0.147948 1.27235,-0.236716 0.68056,-0.118358 1.42029,-0.177537 0.76933,-0.088769 1.53866,-0.088769 z"
         style="font-weight:bold;font-family:Ubuntu;-inkscape-font-specification:'Ubuntu Bold'"
         id="path4097" /><path
         d="m 142.92657,14.282462 q -0.59179,-0.147947 -1.39071,-0.295895 -0.79891,-0.177537 -1.71619,-0.177537 -0.41425,0 -1.00604,0.08877 -0.5622,0.05918 -0.8581,0.147947 V 25.940725 H 133.5467 V 11.205154 q 1.18358,-0.414253 2.78141,-0.769327 1.62742,-0.384663 3.60992,-0.384663 0.35507,0 0.8581,0.05918 0.50302,0.02959 1.00604,0.118358 0.50302,0.05918 1.00604,0.177537 0.50302,0.08877 0.8581,0.236716 z"
         style="font-weight:bold;font-family:Ubuntu;-inkscape-font-specification:'Ubuntu Bold'"
         id="path4099" /><path
         d="m 150.44233,15.998653 q 0.65097,-0.710148 1.33153,-1.479475 0.71015,-0.769327 1.36112,-1.509064 0.65096,-0.769327 1.21317,-1.449886 0.59179,-0.680558 1.00604,-1.18358 h 5.23734 q -1.56824,1.80496 -3.07731,3.461972 -1.47947,1.627422 -3.25484,3.373203 0.88768,0.798916 1.83455,1.923317 0.94686,1.094812 1.83454,2.278392 0.88769,1.18358 1.62743,2.36716 0.73973,1.18358 1.24276,2.160033 h -5.05981 q -0.47343,-0.769327 -1.09481,-1.686601 -0.59179,-0.946864 -1.27235,-1.864139 -0.68056,-0.946864 -1.44988,-1.804959 -0.73974,-0.858096 -1.47948,-1.449886 v 6.805585 H 146.0335 V 3.689421 l 4.40883,-0.710148 z"
         style="font-weight:bold;font-family:Ubuntu;-inkscape-font-specification:'Ubuntu Bold'"
         id="path4101" /><path
         d="m 165.8585,18.040329 q 0,2.041675 0.91727,3.284434 0.91728,1.242759 2.72224,1.242759 0.59179,0 1.09481,-0.02959 0.50302,-0.05918 0.8285,-0.118358 V 14.40082 q -0.41425,-0.266305 -1.09481,-0.443842 -0.65097,-0.177537 -1.33153,-0.177537 -3.13648,0 -3.13648,4.260888 z m 9.97166,7.397375 q -0.59179,0.177537 -1.36112,0.355074 -0.76933,0.147947 -1.62742,0.266305 -0.82851,0.118358 -1.71619,0.177537 -0.8581,0.08877 -1.65701,0.08877 -1.92332,0 -3.43239,-0.562201 -1.50906,-0.5622 -2.54469,-1.597833 -1.03564,-1.065222 -1.59784,-2.544697 -0.53261,-1.509064 -0.53261,-3.373203 0,-1.893728 0.47344,-3.402792 0.47343,-1.538654 1.36111,-2.603876 0.88769,-1.065222 2.16004,-1.627423 1.30193,-0.5622 2.95895,-0.5622 0.91727,0 1.62742,0.177537 0.73974,0.177537 1.47947,0.503021 V 3.689421 l 4.40884,-0.710148 z"
         style="font-weight:bold;font-family:Ubuntu;-inkscape-font-specification:'Ubuntu Bold'"
         id="path4103" /><path
         d="m 194.53073,18.129097 q 0,1.834549 -0.53261,3.373203 -0.53261,1.509065 -1.53866,2.603876 -1.00604,1.065222 -2.42634,1.657012 -1.3907,0.59179 -3.13648,0.59179 -1.71619,0 -3.13649,-0.59179 -1.39071,-0.59179 -2.39675,-1.657012 -1.00604,-1.094811 -1.56824,-2.603876 -0.5622,-1.538654 -0.5622,-3.373203 0,-1.834549 0.5622,-3.343613 0.59179,-1.509065 1.59783,-2.574287 1.03563,-1.065222 2.42634,-1.657012 1.42029,-0.5917899 3.07731,-0.5917899 1.6866,0 3.0773,0.5917899 1.4203,0.59179 2.42634,1.657012 1.00605,1.065222 1.56825,2.574287 0.5622,1.509064 0.5622,3.343613 z m -4.49761,0 q 0,-2.041675 -0.8285,-3.195666 -0.79892,-1.18358 -2.30798,-1.18358 -1.50907,0 -2.33757,1.18358 -0.82851,1.153991 -0.82851,3.195666 0,2.041676 0.82851,3.254845 0.8285,1.18358 2.33757,1.18358 1.50906,0 2.30798,-1.18358 0.8285,-1.213169 0.8285,-3.254845 z"
         style="font-weight:bold;font-family:Ubuntu;-inkscape-font-specification:'Ubuntu Bold'"
         id="path4105" /><path
         d="m 207.04712,17.004696 q -0.59179,2.248802 -1.27235,4.468015 -0.65096,2.219212 -1.3907,4.468014 h -3.43238 q -0.53262,-1.242759 -1.154,-2.95895 -0.62137,-1.716191 -1.30193,-3.728277 -0.65097,-2.041675 -1.36112,-4.290477 -0.68056,-2.278392 -1.33153,-4.586373 h 4.64555 q 0.23672,1.065222 0.50303,2.337571 0.29589,1.242759 0.59179,2.574286 0.32548,1.331528 0.65096,2.692645 0.35508,1.331527 0.71015,2.574286 0.38467,-1.301938 0.73974,-2.663055 0.38466,-1.361117 0.71015,-2.663055 0.35507,-1.331527 0.65097,-2.544697 0.32548,-1.242759 0.5622,-2.307981 h 3.19566 q 0.23672,1.065222 0.53261,2.307981 0.2959,1.21317 0.62138,2.544697 0.32549,1.301938 0.68056,2.663055 0.35508,1.361117 0.73974,2.663055 0.35507,-1.242759 0.71015,-2.574286 0.35507,-1.361117 0.65097,-2.692645 0.32548,-1.331527 0.59179,-2.574286 0.29589,-1.272349 0.53261,-2.337571 h 4.58637 q -0.65097,2.307981 -1.36112,4.586373 -0.68055,2.248802 -1.36111,4.290477 -0.65097,2.012086 -1.30194,3.728277 -0.62138,1.716191 -1.15399,2.95895 h -3.43238 q -0.73974,-2.248802 -1.44989,-4.468014 -0.71015,-2.219213 -1.30194,-4.468015 z"
         style="font-weight:bold;font-family:Ubuntu;-inkscape-font-specification:'Ubuntu Bold'"
         id="path4107" /><path
         d="m 220.77666,10.909259 q 1.1244,-0.325484 2.89977,-0.59179 1.77537,-0.295895 3.72828,-0.295895 1.9825,0 3.28444,0.532611 1.33152,0.503022 2.10085,1.449886 0.76933,0.946864 1.09481,2.248802 0.32549,1.301938 0.32549,2.899771 v 8.788081 h -4.40884 v -8.25547 q 0,-2.130444 -0.5622,-3.018129 -0.5622,-0.887685 -2.10085,-0.887685 -0.47344,0 -1.00605,0.05918 -0.53261,0.02959 -0.94686,0.08877 v 12.013337 h -4.40884 z"
         style="font-weight:bold;font-family:Ubuntu;-inkscape-font-specification:'Ubuntu Bold'"
         id="path4109" /><path
         d="m 96.382322,43.834282 q 0.532611,0.976454 1.21317,2.426339 0.710148,1.420297 1.449885,3.106898 0.769327,1.657012 1.509063,3.402793 0.73974,1.74578 1.39071,3.284434 0.65097,-1.538654 1.3907,-3.284434 0.73974,-1.745781 1.47948,-3.402793 0.76933,-1.686601 1.44989,-3.106898 0.71014,-1.449885 1.24275,-2.426339 h 4.20171 q 0.2959,2.041676 0.53261,4.586373 0.26631,2.515108 0.44385,5.266931 0.20712,2.722234 0.35507,5.474058 0.17754,2.751823 0.2959,5.178162 h -4.49761 q -0.0888,-2.988539 -0.23671,-6.50969 -0.14795,-3.52115 -0.44385,-7.10148 -0.53261,1.242759 -1.18358,2.751824 -0.65097,1.509064 -1.30193,3.018129 -0.62138,1.509064 -1.21317,2.899771 -0.59179,1.361117 -1.00605,2.33757 h -3.22525 q -0.414256,-0.976453 -1.006046,-2.33757 -0.59179,-1.390707 -1.242759,-2.899771 -0.621379,-1.509065 -1.272348,-3.018129 -0.650969,-1.509065 -1.18358,-2.751824 -0.295895,3.58033 -0.443843,7.10148 -0.147947,3.521151 -0.236716,6.50969 h -4.497604 q 0.118358,-2.426339 0.266305,-5.178162 0.177538,-2.751824 0.355075,-5.474058 0.207126,-2.751823 0.443842,-5.266931 0.266306,-2.544697 0.562201,-4.586373 z"
         style="font-weight:bold;font-family:Ubuntu;-inkscape-font-specification:'Ubuntu Bold'"
         id="path4111" /><path
         d="m 123.13121,61.262498 q 0.65097,0 1.24276,-0.02959 0.59179,-0.02959 0.94686,-0.08877 v -3.343613 q -0.2663,-0.05918 -0.79891,-0.118358 -0.53261,-0.05918 -0.97646,-0.05918 -0.62137,0 -1.18358,0.08877 -0.53261,0.05918 -0.94686,0.266306 -0.41425,0.207126 -0.65097,0.5622 -0.23671,0.355074 -0.23671,0.887685 0,1.035633 0.68055,1.449886 0.71015,0.384663 1.92332,0.384663 z m -0.35507,-12.901022 q 1.9529,0 3.25484,0.443843 1.30194,0.443842 2.07127,1.272348 0.79891,0.828506 1.1244,2.012086 0.32548,1.18358 0.32548,2.633466 v 9.172745 q -0.94686,0.207126 -2.63346,0.473432 -1.6866,0.295895 -4.08335,0.295895 -1.50907,0 -2.75183,-0.266306 -1.21317,-0.266305 -2.10085,-0.858095 -0.88769,-0.62138 -1.36112,-1.597833 -0.47343,-0.976454 -0.47343,-2.39675 0,-1.361117 0.53261,-2.307981 0.5622,-0.946864 1.47948,-1.509064 0.91727,-0.562201 2.10085,-0.798917 1.18358,-0.266305 2.45593,-0.266305 0.85809,0 1.50906,0.08877 0.68056,0.05918 1.09481,0.177537 v -0.414253 q 0,-1.124401 -0.68055,-1.804959 -0.68056,-0.680559 -2.36716,-0.680559 -1.1244,0 -2.21922,0.177537 -1.09481,0.147948 -1.89372,0.443843 l -0.5622,-3.55074 q 0.38466,-0.118358 0.94686,-0.236716 0.59179,-0.147948 1.27235,-0.236716 0.68056,-0.118358 1.42029,-0.177537 0.76933,-0.08877 1.53866,-0.08877 z"
         style="font-weight:bold;font-family:Ubuntu;-inkscape-font-specification:'Ubuntu Bold'"
         id="path4113" /><path
         d="m 138.01471,61.17373 q 1.21317,0 1.71619,-0.236716 0.50303,-0.236716 0.50303,-0.917275 0,-0.532611 -0.65097,-0.917274 -0.65097,-0.414253 -1.9825,-0.917275 -1.03563,-0.384663 -1.89373,-0.798916 -0.8285,-0.414253 -1.42029,-0.976454 -0.59179,-0.59179 -0.91728,-1.390706 -0.32548,-0.798917 -0.32548,-1.923318 0,-2.189623 1.62742,-3.461971 1.62742,-1.272349 4.46801,-1.272349 1.4203,0 2.72224,0.266306 1.30194,0.236716 2.07126,0.532611 l -0.76932,3.432382 q -0.76933,-0.266306 -1.68661,-0.473432 -0.88768,-0.207127 -2.01208,-0.207127 -2.07127,0 -2.07127,1.153991 0,0.266305 0.0888,0.473432 0.0888,0.207126 0.35508,0.414253 0.2663,0.177537 0.71014,0.414253 0.47344,0.207126 1.18358,0.473432 1.44989,0.532611 2.39675,1.065222 0.94687,0.503021 1.47948,1.124401 0.5622,0.59179 0.76933,1.331527 0.23671,0.739738 0.23671,1.716191 0,2.307981 -1.74578,3.491561 -1.71619,1.18358 -4.88227,1.18358 -2.07126,0 -3.46197,-0.355074 -1.36112,-0.355074 -1.89373,-0.59179 l 0.73974,-3.580329 q 1.1244,0.443842 2.30798,0.710148 1.18358,0.236716 2.33757,0.236716 z"
         style="font-weight:bold;font-family:Ubuntu;-inkscape-font-specification:'Ubuntu Bold'"
         id="path4115" /><path
         d="m 147.74968,44.899504 4.40884,-0.710148 v 4.586373 h 5.29652 v 3.669098 h -5.29652 v 5.474058 q 0,1.390706 0.47343,2.219212 0.50302,0.828506 1.98249,0.828506 0.71015,0 1.44989,-0.118358 0.76933,-0.147947 1.39071,-0.384663 l 0.62138,3.432382 q -0.79892,0.325484 -1.77537,0.5622 -0.97646,0.236716 -2.39675,0.236716 -1.80496,0 -2.98854,-0.473432 -1.18358,-0.503021 -1.89373,-1.361117 -0.71015,-0.887685 -1.00604,-2.130444 -0.26631,-1.242759 -0.26631,-2.751823 z"
         style="font-weight:bold;font-family:Ubuntu;-inkscape-font-specification:'Ubuntu Bold'"
         id="path4117" /><path
         d="m 159.70383,56.676126 q 0,-2.071265 0.62138,-3.609919 0.65097,-1.568244 1.6866,-2.603876 1.03563,-1.035633 2.36716,-1.568244 1.36111,-0.532611 2.78141,-0.532611 3.31402,0 5.23734,2.041676 1.92332,2.012086 1.92332,5.947489 0,0.384664 -0.0296,0.858096 -0.0296,0.443842 -0.0592,0.798916 h -10.00125 q 0.14795,1.361117 1.27235,2.160034 1.1244,0.798916 3.01813,0.798916 1.21317,0 2.36716,-0.207126 1.18358,-0.236716 1.92332,-0.562201 l 0.59179,3.58033 q -0.35508,0.177537 -0.94687,0.355074 -0.59179,0.177537 -1.33153,0.295895 -0.71014,0.147947 -1.53865,0.236716 -0.82851,0.08877 -1.65701,0.08877 -2.10086,0 -3.6691,-0.621379 -1.53865,-0.62138 -2.57429,-1.686602 -1.00604,-1.094811 -1.50906,-2.574286 -0.47343,-1.479475 -0.47343,-3.195666 z m 10.35632,-1.686602 q -0.0296,-0.5622 -0.20712,-1.094811 -0.14795,-0.532611 -0.50303,-0.946864 -0.32548,-0.414253 -0.85809,-0.680559 -0.50302,-0.266305 -1.27235,-0.266305 -0.73974,0 -1.27235,0.266305 -0.53261,0.236716 -0.88768,0.650969 -0.35508,0.414253 -0.5622,0.976454 -0.17754,0.532611 -0.26631,1.094811 z"
         style="font-weight:bold;font-family:Ubuntu;-inkscape-font-specification:'Ubuntu Bold'"
         id="path4119" /><path
         d="m 187.10369,52.681543 q -0.59179,-0.147947 -1.3907,-0.295895 -0.79892,-0.177537 -1.71619,-0.177537 -0.41426,0 -1.00605,0.08877 -0.5622,0.05918 -0.85809,0.147947 v 11.894979 h -4.40884 V 49.604235 q 1.18358,-0.414253 2.78142,-0.769327 1.62742,-0.384663 3.60991,-0.384663 0.35508,0 0.8581,0.05918 0.50302,0.02959 1.00604,0.118358 0.50302,0.05918 1.00605,0.177537 0.50302,0.08877 0.85809,0.236716 z"
         style="font-weight:bold;font-family:Ubuntu;-inkscape-font-specification:'Ubuntu Bold'"
         id="path4121" /><path
         d="m 206.95827,64.754059 q -5.00062,0 -7.63409,-2.781413 -2.60388,-2.781413 -2.60388,-7.900396 0,-2.544697 0.79892,-4.527194 0.79892,-2.012086 2.18962,-3.373203 1.39071,-1.390707 3.31403,-2.100855 1.92332,-0.710148 4.17212,-0.710148 1.30194,0 2.36716,0.207127 1.06522,0.177537 1.86414,0.443842 0.79891,0.236716 1.33152,0.503022 0.53261,0.266305 0.76933,0.414253 l -1.33153,3.728277 q -0.94686,-0.503021 -2.21921,-0.858095 -1.24276,-0.355075 -2.84059,-0.355075 -1.06522,0 -2.10086,0.355075 -1.00604,0.355074 -1.80496,1.15399 -0.76932,0.769327 -1.24275,2.012086 -0.47344,1.242759 -0.47344,3.018129 0,1.420296 0.2959,2.663055 0.32548,1.21317 1.00604,2.100855 0.71015,0.887685 1.83455,1.420296 1.1244,0.503021 2.72223,0.503021 1.00605,0 1.80496,-0.118358 0.79892,-0.118358 1.4203,-0.266305 0.62138,-0.177537 1.09481,-0.384664 0.47343,-0.207126 0.8581,-0.384663 l 1.27235,3.698687 q -0.97646,0.59179 -2.75183,1.065222 -1.77537,0.473432 -4.11294,0.473432 z"
         style="font-weight:bold;font-family:Ubuntu;-inkscape-font-specification:'Ubuntu Bold'"
         id="path4123" /><path
         d="m 222.22648,43.834282 q 0.53261,0.976454 1.21317,2.426339 0.71014,1.420297 1.44988,3.106898 0.76933,1.657012 1.50907,3.402793 0.73973,1.74578 1.3907,3.284434 0.65097,-1.538654 1.39071,-3.284434 0.73974,-1.745781 1.47947,-3.402793 0.76933,-1.686601 1.44989,-3.106898 0.71015,-1.449885 1.24276,-2.426339 h 4.20171 q 0.29589,2.041676 0.53261,4.586373 0.2663,2.515108 0.44384,5.266931 0.20713,2.722234 0.35508,5.474058 0.17753,2.751823 0.29589,5.178162 h -4.4976 q -0.0888,-2.988539 -0.23672,-6.50969 -0.14795,-3.52115 -0.44384,-7.10148 -0.53261,1.242759 -1.18358,2.751824 -0.65097,1.509064 -1.30194,3.018129 -0.62138,1.509064 -1.21317,2.899771 -0.59179,1.361117 -1.00604,2.33757 h -3.22526 q -0.41425,-0.976453 -1.00604,-2.33757 -0.59179,-1.390707 -1.24276,-2.899771 -0.62138,-1.509065 -1.27235,-3.018129 -0.65097,-1.509065 -1.18358,-2.751824 -0.29589,3.58033 -0.44384,7.10148 -0.14795,3.521151 -0.23672,6.50969 h -4.4976 q 0.11836,-2.426339 0.2663,-5.178162 0.17754,-2.751824 0.35508,-5.474058 0.20712,-2.751823 0.44384,-5.266931 0.26631,-2.544697 0.5622,-4.586373 z"
         style="font-weight:bold;font-family:Ubuntu;-inkscape-font-specification:'Ubuntu Bold'"
         id="path4125" /><path
         d="m 248.91618,60.818656 q 0.97645,0 1.59783,-0.147948 0.65097,-0.177537 1.03564,-0.443842 0.38466,-0.295895 0.53261,-0.680559 0.14794,-0.384663 0.14794,-0.858095 0,-1.006043 -0.94686,-1.657012 -0.94686,-0.680559 -3.25485,-1.449886 -1.00604,-0.355074 -2.01208,-0.798916 -1.00604,-0.473432 -1.80496,-1.153991 -0.79892,-0.710148 -1.30194,-1.686601 -0.50302,-1.006043 -0.50302,-2.426339 0,-1.420296 0.53261,-2.544698 0.53261,-1.15399 1.50907,-1.952907 0.97645,-0.798916 2.36716,-1.213169 1.3907,-0.443843 3.13648,-0.443843 2.07127,0 3.58033,0.443843 1.50907,0.443842 2.48552,0.976453 l -1.33153,3.639509 q -0.85809,-0.443842 -1.92332,-0.769327 -1.03563,-0.355074 -2.5151,-0.355074 -1.65701,0 -2.39675,0.473432 -0.71015,0.443843 -0.71015,1.390707 0,0.5622 0.26631,0.946864 0.2663,0.384663 0.73973,0.710148 0.50302,0.295895 1.1244,0.5622 0.65097,0.236716 1.4203,0.503022 1.59783,0.59179 2.78141,1.18358 1.18358,0.5622 1.95291,1.331527 0.79892,0.769327 1.18358,1.80496 0.38466,1.035632 0.38466,2.515107 0,2.870182 -2.01208,4.468015 -2.01209,1.568243 -6.06585,1.568243 -1.36112,0 -2.45593,-0.177537 -1.09481,-0.147947 -1.95291,-0.384663 -0.8285,-0.236716 -1.44988,-0.503022 -0.59179,-0.266305 -1.00604,-0.503021 l 1.30193,-3.669098 q 0.91728,0.503021 2.24881,0.917274 1.36111,0.384664 3.31402,0.384664 z"
         style="font-weight:bold;font-family:Ubuntu;-inkscape-font-specification:'Ubuntu Bold'"
         id="path4127" /></g></g></svg>
